<svg width="86" height="86" viewBox="0 0 86 86" fill="none" xmlns="http://www.w3.org/2000/svg">
<path fill-rule="evenodd" clip-rule="evenodd" d="M85.6118 48.803C85.501 49.624 84.7233 50.1727 83.9067 50.0334C83.0901 49.894 82.544 49.1193 82.6526 48.298C82.8816 46.5658 83 44.7974 83 43C83 41.2026 82.8816 39.4342 82.6526 37.702C82.544 36.8807 83.0901 36.106 83.9067 35.9666C84.7233 35.8273 85.501 36.376 85.6118 37.197C85.8678 39.0949 86 41.032 86 43C86 44.968 85.8678 46.9051 85.6118 48.803ZM82.8092 26.715C83.1231 27.4816 82.7231 28.3454 81.9459 28.6322C81.1687 28.919 80.3089 28.5202 79.9929 27.7544C78.6324 24.4572 76.8432 21.3804 74.6939 18.5937C74.1879 17.9377 74.2719 16.9936 74.9086 16.4635C75.5452 15.9335 76.4932 16.0183 77.0009 16.6729C79.364 19.7204 81.3264 23.0941 82.8092 26.715ZM69.3271 8.99911C69.9817 9.50676 70.0665 10.4548 69.5365 11.0914C69.0064 11.7281 68.0623 11.8121 67.4063 11.3061C64.6196 9.15679 61.5428 7.36756 58.2456 6.00711C57.4798 5.69114 57.081 4.83126 57.3678 4.05407C57.6546 3.27688 58.5184 2.87686 59.285 3.1908C62.9059 4.67359 66.2796 6.63603 69.3271 8.99911ZM48.803 0.38823C49.624 0.498982 50.1727 1.27668 50.0334 2.0933C49.894 2.90992 49.1193 3.45602 48.298 3.34742C46.5658 3.11836 44.7974 3 43 3C41.2026 3 39.4342 3.11836 37.702 3.34742C36.8807 3.45602 36.106 2.90992 35.9666 2.0933C35.8273 1.27668 36.376 0.498983 37.197 0.388231C39.0949 0.132209 41.032 0 43 0C44.968 0 46.9051 0.132209 48.803 0.38823ZM26.715 3.1908C27.4816 2.87686 28.3454 3.27688 28.6322 4.05407C28.919 4.83126 28.5202 5.69114 27.7544 6.00711C24.4572 7.36757 21.3804 9.15679 18.5937 11.3061C17.9377 11.8121 16.9936 11.7281 16.4635 11.0914C15.9335 10.4548 16.0183 9.50676 16.6729 8.99911C19.7204 6.63603 23.0941 4.67359 26.715 3.1908ZM8.99911 16.6729C9.50676 16.0183 10.4548 15.9335 11.0914 16.4635C11.7281 16.9936 11.8121 17.9377 11.3061 18.5937C9.15679 21.3804 7.36756 24.4572 6.00711 27.7544C5.69114 28.5202 4.83126 28.919 4.05407 28.6322C3.27688 28.3454 2.87686 27.4816 3.1908 26.715C4.67359 23.0941 6.63603 19.7204 8.99911 16.6729ZM2.0933 35.9666C1.27668 35.8273 0.498982 36.376 0.38823 37.197C0.132209 39.0949 0 41.032 0 43C0 44.968 0.132209 46.9051 0.388231 48.803C0.498983 49.624 1.27668 50.1727 2.0933 50.0334C2.90992 49.894 3.45602 49.1193 3.34742 48.298C3.11836 46.5658 3 44.7974 3 43C3 41.2026 3.11836 39.4342 3.34742 37.702C3.45602 36.8807 2.90992 36.106 2.0933 35.9666ZM3.1908 59.285C2.87686 58.5184 3.27688 57.6546 4.05407 57.3678C4.83126 57.081 5.69114 57.4798 6.00711 58.2456C7.36757 61.5428 9.15679 64.6196 11.3061 67.4063C11.8121 68.0623 11.7281 69.0064 11.0914 69.5365C10.4548 70.0665 9.50676 69.9817 8.99911 69.3271C6.63603 66.2796 4.67359 62.9059 3.1908 59.285ZM16.6729 77.0009C16.0183 76.4932 15.9335 75.5452 16.4635 74.9086C16.9936 74.2719 17.9377 74.1879 18.5937 74.6939C21.3804 76.8432 24.4572 78.6324 27.7544 79.9929C28.5202 80.3089 28.919 81.1687 28.6322 81.9459C28.3454 82.7231 27.4816 83.1231 26.715 82.8092C23.0941 81.3264 19.7204 79.364 16.6729 77.0009ZM37.197 85.6118C36.376 85.501 35.8273 84.7233 35.9666 83.9067C36.106 83.0901 36.8807 82.544 37.702 82.6526C39.4342 82.8816 41.2026 83 43 83C44.7974 83 46.5658 82.8816 48.298 82.6526C49.1193 82.544 49.894 83.0901 50.0334 83.9067C50.1727 84.7233 49.624 85.501 48.803 85.6118C46.9051 85.8678 44.968 86 43 86C41.032 86 39.0949 85.8678 37.197 85.6118ZM59.285 82.8092C58.5184 83.1231 57.6546 82.7231 57.3678 81.9459C57.081 81.1687 57.4798 80.3089 58.2456 79.9929C61.5428 78.6324 64.6196 76.8432 67.4063 74.6939C68.0623 74.1879 69.0064 74.2719 69.5365 74.9086C70.0665 75.5452 69.9817 76.4932 69.3271 77.0009C66.2796 79.364 62.9059 81.3264 59.285 82.8092ZM77.0009 69.3271C76.4932 69.9817 75.5452 70.0665 74.9086 69.5365C74.2719 69.0064 74.1879 68.0623 74.6939 67.4063C76.8432 64.6196 78.6324 61.5428 79.9929 58.2456C80.3089 57.4798 81.1687 57.081 81.9459 57.3678C82.7231 57.6546 83.1231 58.5184 82.8092 59.285C81.3264 62.9059 79.364 66.2796 77.0009 69.3271Z" fill="#57B233" fill-opacity="0.75"/>
</svg>
