<svg width="25" height="26" viewBox="0 0 25 26" fill="none" xmlns="http://www.w3.org/2000/svg">
<path fill-rule="evenodd" clip-rule="evenodd" d="M10.6061 15.2941L10.6061 23.7273C10.6061 24.9825 11.6236 26 12.8788 26C14.134 26 15.1515 24.9825 15.1515 23.7273V15.2941L22.7059 15.2941C23.9729 15.2941 25 14.267 25 13C25 11.733 23.9729 10.7059 22.7059 10.7059H15.1515V2.27273C15.1515 1.01753 14.134 0 12.8788 0C11.6236 0 10.6061 1.01754 10.6061 2.27273V10.7059L2.29412 10.7059C1.02711 10.7059 0 11.733 0 13C0 14.267 1.02711 15.2941 2.29412 15.2941L10.6061 15.2941Z" fill="white"/>
</svg>
